<?xml version="1.0" encoding="UTF-8" standalone="no"?><!DOCTYPE svg PUBLIC "-//W3C//DTD SVG 1.1//EN" "http://www.w3.org/Graphics/SVG/1.1/DTD/svg11.dtd"><svg width="100%" height="100%" viewBox="0 0 240 240" version="1.1" xmlns="http://www.w3.org/2000/svg" xmlns:xlink="http://www.w3.org/1999/xlink" xml:space="preserve" xmlns:serif="http://www.serif.com/" style="fill-rule:evenodd;clip-rule:evenodd;stroke-linecap:round;stroke-linejoin:round;"><rect x="0" y="0" width="240" height="240" style="fill:#2c2e3f;"/><clipPath id="_clip1"><rect x="0" y="0" width="240" height="240"/></clipPath><g clip-path="url(#_clip1)"><rect x="0" y="0" width="240" height="240" style="fill:#fff;fill-opacity:0.01;fill-rule:nonzero;"/><g><path d="M89.911,59.845l69.013,-39.845l23.062,39.945l-92.075,-0.1Z" style="fill:none;stroke:#000;stroke-width:20px;"/><path d="M20,70c0,-5.523 4.477,-10 10,-10l180,0c5.523,0 10,4.477 10,10l0,140c0,5.523 -4.477,10 -10,10l-180,0c-5.523,0 -10,-4.477 -10,-10l0,-140Z" style="fill:#2f88ff;fill-rule:nonzero;stroke:#000;stroke-width:20px;stroke-linecap:butt;"/><path d="M176.25,165l43.75,0l0,-50l-43.75,0c-14.497,0 -26.25,11.193 -26.25,25c0,13.807 11.753,25 26.25,25Z" style="fill:#43ccf8;fill-rule:nonzero;stroke:#fff;stroke-width:20px;stroke-linecap:butt;"/><path d="M220,82.5l0,120" style="fill:none;fill-rule:nonzero;stroke:#000;stroke-width:20px;stroke-linejoin:miter;"/></g></g><g transform="matrix(98.3525,0,0,98.3525,127.255,163.582)"></g><text x="22.411px" y="163.582px" style="font-family:'Ubuntu-BoldItalic', 'Ubuntu', sans-serif;font-weight:700;font-style:italic;font-size:98.352px;">T<tspan x="74.931px " y="163.582px ">y</tspan></text></svg>